<?xml version="1.0" encoding="UTF-8" standalone="no"?>
<!-- Created with Inkscape (http://www.inkscape.org/) -->

<svg
   xmlns:dc="http://purl.org/dc/elements/1.1/"
   xmlns:cc="http://creativecommons.org/ns#"
   xmlns:rdf="http://www.w3.org/1999/02/22-rdf-syntax-ns#"
   xmlns:svg="http://www.w3.org/2000/svg"
   xmlns="http://www.w3.org/2000/svg"
   xmlns:xlink="http://www.w3.org/1999/xlink"
   xmlns:sodipodi="http://sodipodi.sourceforge.net/DTD/sodipodi-0.dtd"
   xmlns:inkscape="http://www.inkscape.org/namespaces/inkscape"
   width="744.09448819"
   height="1052.3622047"
   id="svg2"
   version="1.1"
   inkscape:version="0.48.1 r9760"
   sodipodi:docname="tweet-widget.svg">
  <defs
     id="defs4">
    <linearGradient
       id="linearGradient4357">
      <stop
         style="stop-color:#33ccff;stop-opacity:1;"
         offset="0"
         id="stop4359" />
      <stop
         style="stop-color:#9eccff;stop-opacity:1;"
         offset="1"
         id="stop4361" />
    </linearGradient>
    <linearGradient
       id="linearGradient4349">
      <stop
         style="stop-color:#4d4d4d;stop-opacity:1;"
         offset="0"
         id="stop4351" />
      <stop
         style="stop-color:#000000;stop-opacity:1;"
         offset="1"
         id="stop4353" />
    </linearGradient>
    <linearGradient
       id="linearGradient4331">
      <stop
         style="stop-color:#464646;stop-opacity:1;"
         offset="0"
         id="stop4333" />
      <stop
         style="stop-color:#000000;stop-opacity:1;"
         offset="1"
         id="stop4335" />
    </linearGradient>
    <linearGradient
       id="linearGradient4095">
      <stop
         style="stop-color:#000000;stop-opacity:1;"
         offset="0"
         id="stop4097" />
      <stop
         style="stop-color:#ffffff;stop-opacity:0;"
         offset="1"
         id="stop4099" />
    </linearGradient>
    <linearGradient
       inkscape:collect="always"
       id="linearGradient3950">
      <stop
         style="stop-color:#40cdec;stop-opacity:1;"
         offset="0"
         id="stop3952" />
      <stop
         style="stop-color:#40cdec;stop-opacity:0;"
         offset="1"
         id="stop3954" />
    </linearGradient>
    <linearGradient
       inkscape:collect="always"
       id="linearGradient3932">
      <stop
         style="stop-color:#40cdeb;stop-opacity:1;"
         offset="0"
         id="stop3934" />
      <stop
         style="stop-color:#40cdeb;stop-opacity:0;"
         offset="1"
         id="stop3936" />
    </linearGradient>
    <filter
       inkscape:collect="always"
       id="filter4319"
       x="-0.028791051"
       width="1.0575821"
       y="-0.14422414"
       height="1.2884483">
      <feGaussianBlur
         inkscape:collect="always"
         stdDeviation="0.92430071"
         id="feGaussianBlur4321" />
    </filter>
    <linearGradient
       inkscape:collect="always"
       xlink:href="#linearGradient4349"
       id="linearGradient4355"
       x1="219.06107"
       y1="47.074997"
       x2="219.17255"
       y2="31.699997"
       gradientUnits="userSpaceOnUse" />
    <linearGradient
       inkscape:collect="always"
       xlink:href="#linearGradient3932"
       id="linearGradient4371"
       gradientUnits="userSpaceOnUse"
       gradientTransform="matrix(0.33448283,0,0,0.27129492,57.780662,5.0106781)"
       x1="360.62445"
       y1="17.96599"
       x2="360.62445"
       y2="209.89497" />
    <linearGradient
       inkscape:collect="always"
       xlink:href="#linearGradient3950"
       id="linearGradient4373"
       gradientUnits="userSpaceOnUse"
       gradientTransform="matrix(1,0,0,0.82744639,-132.10374,-303.6894)"
       x1="66.042946"
       y1="9.8700323"
       x2="66.012985"
       y2="295.59525" />
    <linearGradient
       inkscape:collect="always"
       xlink:href="#linearGradient3950"
       id="linearGradient4375"
       gradientUnits="userSpaceOnUse"
       gradientTransform="matrix(1,0,0,0.82744639,-358.49609,-303.6894)"
       x1="66.042946"
       y1="9.8700323"
       x2="66.012985"
       y2="295.59525" />
    <linearGradient
       id="linearGradient4357-4">
      <stop
         style="stop-color:#33ccff;stop-opacity:1;"
         offset="0"
         id="stop4359-5" />
      <stop
         style="stop-color:#9eccff;stop-opacity:1;"
         offset="1"
         id="stop4361-5" />
    </linearGradient>
    <linearGradient
       inkscape:collect="always"
       xlink:href="#linearGradient4349-1"
       id="linearGradient4355-4"
       x1="219.06107"
       y1="47.074997"
       x2="219.17255"
       y2="31.699997"
       gradientUnits="userSpaceOnUse" />
    <linearGradient
       id="linearGradient4349-1">
      <stop
         style="stop-color:#4d4d4d;stop-opacity:1;"
         offset="0"
         id="stop4351-6" />
      <stop
         style="stop-color:#000000;stop-opacity:1;"
         offset="1"
         id="stop4353-8" />
    </linearGradient>
    <linearGradient
       id="linearGradient4416">
      <stop
         style="stop-color:#4d4d4d;stop-opacity:1;"
         offset="0"
         id="stop4418" />
      <stop
         style="stop-color:#000000;stop-opacity:1;"
         offset="1"
         id="stop4420" />
    </linearGradient>
    <linearGradient
       id="linearGradient4423">
      <stop
         style="stop-color:#4d4d4d;stop-opacity:1;"
         offset="0"
         id="stop4425" />
      <stop
         style="stop-color:#000000;stop-opacity:1;"
         offset="1"
         id="stop4427" />
    </linearGradient>
    <linearGradient
       id="linearGradient4430">
      <stop
         style="stop-color:#4d4d4d;stop-opacity:1;"
         offset="0"
         id="stop4432" />
      <stop
         style="stop-color:#000000;stop-opacity:1;"
         offset="1"
         id="stop4434" />
    </linearGradient>
    <linearGradient
       id="linearGradient4437">
      <stop
         style="stop-color:#4d4d4d;stop-opacity:1;"
         offset="0"
         id="stop4439" />
      <stop
         style="stop-color:#000000;stop-opacity:1;"
         offset="1"
         id="stop4441" />
    </linearGradient>
    <linearGradient
       id="linearGradient4444">
      <stop
         style="stop-color:#4d4d4d;stop-opacity:1;"
         offset="0"
         id="stop4446" />
      <stop
         style="stop-color:#000000;stop-opacity:1;"
         offset="1"
         id="stop4448" />
    </linearGradient>
    <linearGradient
       id="linearGradient4451">
      <stop
         style="stop-color:#4d4d4d;stop-opacity:1;"
         offset="0"
         id="stop4453" />
      <stop
         style="stop-color:#000000;stop-opacity:1;"
         offset="1"
         id="stop4455" />
    </linearGradient>
    <linearGradient
       id="linearGradient4458">
      <stop
         style="stop-color:#4d4d4d;stop-opacity:1;"
         offset="0"
         id="stop4460" />
      <stop
         style="stop-color:#000000;stop-opacity:1;"
         offset="1"
         id="stop4462" />
    </linearGradient>
    <linearGradient
       id="linearGradient4465">
      <stop
         style="stop-color:#4d4d4d;stop-opacity:1;"
         offset="0"
         id="stop4467" />
      <stop
         style="stop-color:#000000;stop-opacity:1;"
         offset="1"
         id="stop4469" />
    </linearGradient>
    <linearGradient
       id="linearGradient4472">
      <stop
         style="stop-color:#4d4d4d;stop-opacity:1;"
         offset="0"
         id="stop4474" />
      <stop
         style="stop-color:#000000;stop-opacity:1;"
         offset="1"
         id="stop4476" />
    </linearGradient>
    <filter
       color-interpolation-filters="sRGB"
       inkscape:collect="always"
       id="filter4319-7"
       x="-0.028791051"
       width="1.0575821"
       y="-0.14422414"
       height="1.2884483">
      <feGaussianBlur
         inkscape:collect="always"
         stdDeviation="0.92430071"
         id="feGaussianBlur4321-6" />
    </filter>
    <linearGradient
       inkscape:collect="always"
       xlink:href="#linearGradient4349-1"
       id="linearGradient4690"
       gradientUnits="userSpaceOnUse"
       x1="219.06107"
       y1="47.074997"
       x2="219.17255"
       y2="31.699997" />
    <linearGradient
       inkscape:collect="always"
       xlink:href="#linearGradient4349-1"
       id="linearGradient4692"
       gradientUnits="userSpaceOnUse"
       x1="219.06107"
       y1="47.074997"
       x2="219.17255"
       y2="31.699997" />
    <linearGradient
       inkscape:collect="always"
       xlink:href="#linearGradient4349-1"
       id="linearGradient4694"
       gradientUnits="userSpaceOnUse"
       x1="219.06107"
       y1="47.074997"
       x2="219.17255"
       y2="31.699997" />
    <linearGradient
       inkscape:collect="always"
       xlink:href="#linearGradient4349-1"
       id="linearGradient4696"
       gradientUnits="userSpaceOnUse"
       x1="219.06107"
       y1="47.074997"
       x2="219.17255"
       y2="31.699997" />
    <linearGradient
       inkscape:collect="always"
       xlink:href="#linearGradient4349-1"
       id="linearGradient4698"
       gradientUnits="userSpaceOnUse"
       x1="219.06107"
       y1="47.074997"
       x2="219.17255"
       y2="31.699997" />
    <linearGradient
       inkscape:collect="always"
       xlink:href="#linearGradient4349-1"
       id="linearGradient4700"
       gradientUnits="userSpaceOnUse"
       x1="219.06107"
       y1="47.074997"
       x2="219.17255"
       y2="31.699997" />
    <linearGradient
       inkscape:collect="always"
       xlink:href="#linearGradient4349-1"
       id="linearGradient4702"
       gradientUnits="userSpaceOnUse"
       x1="219.06107"
       y1="47.074997"
       x2="219.17255"
       y2="31.699997" />
    <linearGradient
       inkscape:collect="always"
       xlink:href="#linearGradient4349-1"
       id="linearGradient4704"
       gradientUnits="userSpaceOnUse"
       x1="219.06107"
       y1="47.074997"
       x2="219.17255"
       y2="31.699997" />
    <linearGradient
       inkscape:collect="always"
       xlink:href="#linearGradient4349-1"
       id="linearGradient4706"
       gradientUnits="userSpaceOnUse"
       x1="219.06107"
       y1="47.074997"
       x2="219.17255"
       y2="31.699997" />
    <linearGradient
       inkscape:collect="always"
       xlink:href="#linearGradient4349-1"
       id="linearGradient4708"
       gradientUnits="userSpaceOnUse"
       x1="219.06107"
       y1="47.074997"
       x2="219.17255"
       y2="31.699997" />
    <linearGradient
       inkscape:collect="always"
       xlink:href="#linearGradient4357-4"
       id="linearGradient4710"
       gradientUnits="userSpaceOnUse"
       gradientTransform="matrix(1.3675069,0,0,1.3675069,-67.500458,-29.203287)"
       x1="272.46378"
       y1="48.889519"
       x2="272.46378"
       y2="18.696863" />
    <linearGradient
       inkscape:collect="always"
       xlink:href="#linearGradient4349-1"
       id="linearGradient4789"
       gradientUnits="userSpaceOnUse"
       x1="219.06107"
       y1="47.074997"
       x2="219.17255"
       y2="31.699997" />
    <filter
       inkscape:collect="always"
       id="filter4799"
       x="-0.20163253"
       width="1.4032651"
       y="-0.29239735"
       height="1.5847947">
      <feGaussianBlur
         inkscape:collect="always"
         stdDeviation="18.153003"
         id="feGaussianBlur4801" />
    </filter>
  </defs>
  <sodipodi:namedview
     id="base"
     pagecolor="#ffffff"
     bordercolor="#666666"
     borderopacity="1.0"
     inkscape:pageopacity="0.0"
     inkscape:pageshadow="2"
     inkscape:zoom="2.8284271"
     inkscape:cx="134.98205"
     inkscape:cy="968.80354"
     inkscape:document-units="px"
     inkscape:current-layer="layer3"
     showgrid="false"
     inkscape:window-width="1920"
     inkscape:window-height="1056"
     inkscape:window-x="1440"
     inkscape:window-y="24"
     inkscape:window-maximized="1" />
  <metadata
     id="metadata7">
    <rdf:RDF>
      <cc:Work
         rdf:about="">
        <dc:format>image/svg+xml</dc:format>
        <dc:type
           rdf:resource="http://purl.org/dc/dcmitype/StillImage" />
        <dc:title></dc:title>
      </cc:Work>
    </rdf:RDF>
  </metadata>
  <g
     inkscape:label="Layer 1"
     inkscape:groupmode="layer"
     id="layer1"
     style="display:inline">
    <g
       id="g4365"
       transform="matrix(1.3193056,0,0,1.3193056,-48.508244,-23.966818)">
      <rect
         y="9.8847561"
         x="65.551872"
         height="52.069363"
         width="227.39235"
         id="rect3123"
         style="fill:url(#linearGradient4371);fill-opacity:1"
         inkscape:export-filename="/var/www/twitter-widget/images/header_bg.png"
         inkscape:export-xdpi="90"
         inkscape:export-ydpi="90" />
      <rect
         transform="scale(-1,-1)"
         style="fill:url(#linearGradient4373);fill-opacity:1"
         id="rect3940"
         width="1"
         height="236.33981"
         x="-66.551872"
         y="-295.51028" />
      <rect
         transform="matrix(0,1,-1,0,0,0)"
         y="-292.94302"
         x="295.51028"
         height="227.38724"
         width="1"
         id="rect3944"
         style="fill:#40cdec;fill-opacity:1" />
      <rect
         y="-295.51028"
         x="-292.94421"
         height="236.33981"
         width="1"
         id="rect3960"
         style="fill:url(#linearGradient4375);fill-opacity:1"
         transform="scale(-1,-1)" />
    </g>
  </g>
  <g
     inkscape:groupmode="layer"
     id="layer2"
     inkscape:label="clouds"
     style="display:inline">
    <path
       inkscape:connector-curvature="0"
       style="fill:#ffffff;fill-opacity:1;fill-rule:evenodd;stroke:none"
       d="m 224.1565,32.123425 c -3.94434,0 -7.31866,2.50611 -8.71237,6.052107 -1.4759,-0.993008 -3.23832,-1.571975 -5.13309,-1.571975 -5.19,0 -9.39558,4.33106 -9.39558,9.673696 0,5.342634 4.20558,9.673694 9.39558,9.673694 1.82476,0 3.5282,-0.53663 4.96986,-1.463146 1.77519,0.386922 3.69452,0.673185 5.71351,0.834356 0.65987,6.335683 5.57452,11.257764 11.53589,11.257764 6.41116,0 11.60844,-5.693117 11.60844,-12.714866 0,-1.123414 -0.13719,-2.209248 -0.38695,-3.246732 3.82945,-1.44169 6.5116,-4.760077 6.5116,-8.627729 0,-5.189987 -4.8269,-9.401619 -10.78012,-9.401619 -3.18591,0 -6.04976,1.210151 -8.02312,3.12581 -1.72292,-2.187106 -4.3551,-3.59136 -7.30365,-3.59136 z"
       id="path2822-7-0"
       inkscape:export-filename="/home/md/proyectos/castle_vs_castle/cloud01.png"
       inkscape:export-xdpi="90"
       inkscape:export-ydpi="90" />
    <path
       inkscape:connector-curvature="0"
       style="fill:#ffffff;fill-opacity:1;fill-rule:evenodd;stroke:none"
       d="m 187.83657,44.236208 c -5.04766,0 -9.34471,3.524591 -10.94336,8.45239 -1.2097,-0.583826 -2.55997,-0.912952 -3.98436,-0.912952 -5.18998,0 -9.39557,4.33106 -9.39557,9.673695 0,5.323864 4.17633,9.643408 9.34115,9.673695 2.78648,3.646086 10.79118,6.275809 20.23012,6.275809 8.02547,0 15.00828,-1.904607 18.63396,-4.715926 4.33077,-1.219365 7.46689,-4.760742 7.46689,-8.942124 0,-5.189987 -4.82691,-9.395576 -10.78014,-9.395576 -3.81282,0 -7.15877,1.724514 -9.07512,4.328979 0.07,-0.56486 0.11488,-1.143265 0.11488,-1.729174 0,-7.021748 -5.19728,-12.708816 -11.60844,-12.708816 z"
       id="path2816"
       inkscape:export-filename="/home/md/proyectos/castle_vs_castle/cloud00.png"
       inkscape:export-xdpi="90"
       inkscape:export-ydpi="90" />
    <path
       inkscape:connector-curvature="0"
       style="opacity:0.2;fill:#ffffff;fill-opacity:1;stroke:none"
       d="m 215.07691,4.408413 c -7.11754,0 -12.88447,5.674901 -12.88447,12.68369 0,2.121866 0.53726,4.119804 1.47221,5.877577 -6.55598,0.881579 -11.49579,4.771472 -11.49579,9.438585 0,1.608453 0.59149,3.128087 1.62884,4.460831 -5.3211,1.78622 -8.79151,4.710041 -8.79151,8.012266 0,5.437851 9.40878,9.850204 21.00774,9.850204 4.73022,0 9.09163,-0.73482 12.60256,-1.971955 3.64862,1.261756 7.7035,1.971955 11.97608,1.971955 4.10928,0 8.0196,-0.656111 11.55844,-1.828366 5.69127,2.436265 14.85432,4.010919 25.19466,4.010919 11.94439,0 22.32157,-2.106939 27.58572,-5.207493 2.02683,1.62712 4.53583,2.584602 7.25664,2.584602 6.72212,0 12.17447,-5.873566 12.17447,-13.124036 0,-6.785485 -4.77847,-12.368821 -10.90063,-13.057026 -1.73259,-6.042369 -9.01269,-10.577722 -17.73964,-10.577722 -3.9353,0 -7.57313,0.922104 -10.54564,2.488876 -0.57033,-4.826236 -6.32004,-8.615341 -13.323,-8.615341 -5.22417,0 -9.73631,2.112762 -11.93432,5.188351 -5.11789,-3.495141 -11.89425,-5.628689 -19.3267,-5.628689 -1.39407,0 -2.76209,0.08506 -4.1034,0.229742 -2.1571,-4.036721 -6.45825,-6.78697 -11.41226,-6.78697 z"
       id="path3641" />
    <path
       inkscape:connector-curvature="0"
       style="fill:#ffffff;fill-opacity:1;stroke:none"
       d="m 110.97659,1.8682005 c -10.45049,0 -18.929602,5.5545115 -18.929602,12.4121515 0,0.222643 0.008,0.446939 0.02563,0.666702 -3.379458,0.682524 -5.998174,2.522839 -6.793486,4.823291 -4.600978,0.981664 -8.056602,5.139109 -8.056602,10.123972 0,2.167324 0.650069,4.18155 1.766649,5.843922 -1.750744,-0.248253 -3.580451,-0.38685 -5.470636,-0.38685 -12.04408,0 -21.828192,5.363094 -22.036162,12.017075 -6.208258,1.725493 -10.147576,4.299042 -10.147576,7.177323 0,5.195186 12.8387,9.399656 28.676033,9.399656 6.633005,0 12.731565,-0.743282 17.589679,-1.98364 4.85729,1.876454 13.156933,3.119503 22.590913,3.119503 7.53257,0 14.34872,-0.792942 19.26245,-2.065952 3.54939,1.763695 7.95813,2.814959 12.73352,2.814959 11.74332,0 21.25953,-6.31494 21.25953,-14.107719 0,-3.512016 -1.93855,-6.724436 -5.13779,-9.193883 1.01448,-2.040686 1.63009,-4.754597 1.63009,-7.737025 0,-6.338121 -2.7997,-11.482065 -6.24728,-11.482065 -0.13373,0 -0.26095,0.0094 -0.39258,0.0247 -0.12023,-5.222807 -5.92323,-9.432578 -13.06639,-9.432578 -3.14604,0 -6.03152,0.821755 -8.28703,2.18118 -0.67236,-0.424045 -1.35971,-0.827947 -2.07389,-1.201707 0.0143,-0.198255 0.0255,-0.400273 0.0255,-0.600855 0,-6.85764 -8.47058,-12.4121516 -18.92107,-12.4121516 z"
       id="path3660" />
  </g>
  <g
     inkscape:groupmode="layer"
     id="layer3"
     inkscape:label="logo"
     style="display:inline">
    <g
       id="g4764"
       transform="matrix(0.8819561,0,0,0.8819561,26.276071,-1.1874052)"
       inkscape:export-filename="/var/www/twitter-widget/images/twitter_logo.png"
       inkscape:export-xdpi="90"
       inkscape:export-ydpi="90">
      <path
         transform="matrix(0.17438016,0,0,0.17438016,248.52467,0.96257713)"
         style="opacity:0.39999994;fill:#ffffff;fill-opacity:1;filter:url(#filter4799)"
         inkscape:connector-curvature="0"
         id="path4263"
         d="m 472.48851,112.33765 c -7.60401,1.2988 -18.63251,-0.0513 -24.47607,-2.48269 12.14263,-1.00539 20.36424,-6.52476 23.53224,-14.017986 -4.37652,2.694031 -17.96978,5.628126 -25.4671,2.831502 -0.37343,-1.762507 -0.77969,-3.44089 -1.19211,-4.959232 -5.70814,-21.012617 -25.29064,-37.946229 -45.79441,-35.89852 1.65376,-0.670943 3.33009,-1.294694 5.02489,-1.863046 2.24468,-0.808414 15.49734,-2.971026 13.4127,-7.643004 -1.76456,-4.12004 -17.95336,3.098238 -20.99825,4.048227 4.0236,-1.508082 10.67968,-4.109781 11.38756,-8.740723 -6.1616,0.845347 -12.21239,3.763025 -16.88437,8.004122 1.69069,-1.815854 2.96897,-4.02976 3.23981,-6.418071 -16.44323,10.517594 -26.04776,31.704615 -33.81593,52.271989 -6.10004,-5.923585 -11.52093,-10.587355 -16.36936,-13.182899 -13.60968,-7.296247 -29.88876,-14.920784 -55.43383,-24.416575 -0.78585,8.459625 4.17749,19.717923 18.47042,27.192678 -3.09414,-0.41857 -8.75714,0.519109 -13.27934,1.594259 1.84048,9.703023 7.86665,17.686629 24.19088,21.544039 -7.45834,0.49038 -11.31985,2.19954 -14.80999,5.85177 3.39575,6.74636 11.69534,14.67662 26.59971,13.04542 -16.58686,7.15878 -6.76483,20.40939 6.732,18.43145 -23.01109,23.80513 -59.3015,22.03852 -80.14177,2.14619 54.40177,74.20998 172.67238,43.88213 190.28924,-27.59484 13.21778,0.1067 20.96953,-4.57554 25.78308,-9.74406 z"
         clip-path="none" />
      <g
         transform="matrix(0.81550402,0,0,0.81550402,65.569066,0.04955766)"
         id="g4667">
        <g
           id="g4299"
           style="fill:#ffffff;filter:url(#filter4319-7)"
           transform="matrix(1.3675069,0,0,1.3675069,-67.500458,-29.203287)">
          <path
             d="m 246.98515,41.500376 c -0.0149,0.0026 -0.0303,0.0016 -0.0455,0.0042 l 0.0788,-0.01282 c -0.0123,0.0018 -0.0209,0.0068 -0.0332,0.0086 z"
             id="path4301"
             inkscape:connector-curvature="0"
             style="fill:#ffffff"
             clip-path="none" />
          <path
             d="m 194.2083,45.206516 c 0,0.513863 -0.1842,0.954466 -0.55285,1.321025 -0.36865,0.367081 -0.8103,0.550491 -1.32626,0.550491 h -3.71477 c -1.5476,0 -2.8702,-0.546829 -3.96857,-1.641533 -1.09863,-1.094966 -1.64729,-2.412589 -1.64729,-3.955224 v -7.502546 c 0,-0.528776 0.18289,-0.97278 0.54866,-1.333059 0.36578,-0.359756 0.81266,-0.540026 1.34013,-0.540026 0.51203,0 0.95211,0.183671 1.31736,0.550753 0.3663,0.366559 0.54997,0.806638 0.54997,1.321024 v 2.716615 h 5.2888 c 0.48011,0 0.89141,0.170067 1.23469,0.510723 0.34301,0.340133 0.51386,0.74803 0.51386,1.22474 0,0.475662 -0.17085,0.884607 -0.51256,1.225002 -0.3417,0.339871 -0.75221,0.510199 -1.23023,0.510199 h -5.29456 v 1.314744 c 0,0.515694 0.18001,0.953681 0.54186,1.314746 0.36132,0.360278 0.80009,0.540549 1.31631,0.540549 h 3.71556 c 0.51569,0 0.95839,0.183934 1.32704,0.550754 0.36865,0.367081 0.55285,0.807423 0.55285,1.321023 z"
             id="path4303"
             inkscape:connector-curvature="0"
             style="fill:#ffffff"
             clip-path="none" />
          <path
             d="m 237.7147,45.206516 c 0,0.513863 -0.1842,0.954466 -0.55259,1.321025 -0.36839,0.367081 -0.8103,0.550491 -1.32599,0.550491 h -1.68733 c -1.5476,0 -2.87019,-0.546829 -3.96856,-1.641533 -1.09837,-1.094705 -1.64703,-2.412589 -1.64703,-3.955224 v -7.502546 c 0,-0.528776 0.18263,-0.97278 0.54866,-1.333059 0.36577,-0.359756 0.81239,-0.540026 1.34012,-0.540026 0.51177,0 0.95212,0.183671 1.3171,0.550753 0.3663,0.366559 0.54997,0.806638 0.54997,1.321024 v 2.716615 h 3.26135 c 0.48011,0 0.89141,0.170328 1.23442,0.510723 0.34328,0.340133 0.51387,0.74803 0.51387,1.22474 0,0.475662 -0.17059,0.884346 -0.5123,1.224739 -0.3417,0.339872 -0.75221,0.5102 -1.22997,0.5102 h -3.26763 v 1.315006 c 0,0.515694 0.18001,0.953681 0.54186,1.314746 0.36132,0.360278 0.8001,0.540549 1.31605,0.540549 h 1.68837 c 0.51543,0 0.95839,0.183934 1.32678,0.550754 0.36865,0.367081 0.55285,0.807423 0.55285,1.321023 z"
             id="path4305"
             inkscape:connector-curvature="0"
             style="fill:#ffffff"
             clip-path="none" />
          <path
             d="m 227.89375,45.206516 c 0,0.513863 -0.18419,0.954466 -0.55258,1.321025 -0.36839,0.367081 -0.81031,0.550491 -1.326,0.550491 h -1.68732 c -1.5476,0 -2.8702,-0.546829 -3.96831,-1.641533 -1.09836,-1.094966 -1.64702,-2.412589 -1.64702,-3.955224 v -7.502546 c 0,-0.528776 0.18288,-0.97278 0.54866,-1.333059 0.36577,-0.359756 0.81239,-0.540026 1.34012,-0.540026 0.51177,0 0.95211,0.183671 1.3171,0.550753 0.3663,0.366559 0.54997,0.806638 0.54997,1.321024 v 2.716615 h 3.26135 c 0.48011,0 0.89141,0.170328 1.23442,0.510723 0.34327,0.340133 0.51386,0.74803 0.51386,1.22474 0,0.475662 -0.17059,0.884346 -0.51229,1.224739 -0.3417,0.339872 -0.75222,0.5102 -1.22997,0.5102 h -3.26711 v 1.315006 c 0,0.515694 0.18001,0.953681 0.54186,1.314746 0.36132,0.360278 0.8001,0.540549 1.31605,0.540549 h 1.68837 c 0.51543,0 0.95839,0.183934 1.32678,0.550754 0.3676,0.367081 0.55206,0.807423 0.55206,1.321023 z"
             id="path4307"
             inkscape:connector-curvature="0"
             style="fill:#ffffff"
             clip-path="none" />
          <path
             d="m 212.32116,41.841555 c 0,1.443211 -0.51308,2.676846 -1.54054,3.700908 -1.0272,1.023801 -2.26424,1.535569 -3.71137,1.535569 -1.32391,0 -2.48873,-0.446097 -3.49526,-1.339338 -0.99241,0.893241 -2.15095,1.339338 -3.47433,1.339338 -1.44687,0 -2.68469,-0.511768 -3.71216,-1.535569 -1.02694,-1.023799 -1.54028,-2.257697 -1.54028,-3.700908 V 38.18408 c 0,-0.495024 0.1719,-0.910248 0.51701,-1.24698 0.34353,-0.336993 0.75745,-0.505489 1.23913,-0.505489 0.48272,0 0.89585,0.168496 1.23965,0.505489 0.34432,0.336993 0.51674,0.753002 0.51674,1.248026 v 3.658784 c 0,0.482465 0.16902,0.890888 0.50628,1.228142 0.33803,0.336993 0.74855,0.504705 1.23101,0.504705 0.46886,0 0.87205,-0.167712 1.20983,-0.504705 0.33778,-0.337254 0.50628,-0.745938 0.50628,-1.228142 v -3.638375 c 0,-0.481158 0.1732,-0.896643 0.51778,-1.247765 0.34589,-0.350337 0.7674,-0.526159 1.26425,-0.526159 0.48273,0 0.8969,0.171898 1.24253,0.516217 0.34563,0.343534 0.51805,0.756403 0.51805,1.237298 v 3.658784 c 0,0.482465 0.16902,0.890888 0.5068,1.228142 0.33725,0.336993 0.74123,0.504705 1.20956,0.504705 0.48273,0 0.89324,-0.167712 1.23024,-0.504705 0.33804,-0.337254 0.5068,-0.745938 0.5068,-1.228142 v -3.658784 c 0,-0.480895 0.17242,-0.893764 0.517,-1.237298 0.34406,-0.344058 0.75771,-0.516217 1.23913,-0.516217 0.48246,0 0.89612,0.171898 1.23991,0.515432 0.34432,0.343535 0.51648,0.755879 0.51648,1.237037 v 3.657475 z"
             id="path4309"
             inkscape:connector-curvature="0"
             style="fill:#ffffff"
             clip-path="none" />
          <path
             d="m 217.39437,33.568477 c 0,0.513339 -0.18367,0.953941 -0.55232,1.320762 -0.36839,0.36682 -0.81004,0.550753 -1.32495,0.550753 -0.51622,0 -0.95761,-0.183933 -1.32626,-0.550753 -0.36734,-0.366559 -0.55154,-0.807423 -0.55154,-1.320762 0,-0.514124 0.1842,-0.954204 0.55154,-1.321024 0.36865,-0.367344 0.8103,-0.550492 1.32626,-0.550492 0.51517,0 0.95682,0.183148 1.32495,0.550492 0.36865,0.36682 0.55232,0.807161 0.55232,1.321024 z"
             id="path4311"
             inkscape:connector-curvature="0"
             style="fill:#ffffff"
             clip-path="none" />
          <path
             d="m 217.39437,45.204424 c 0,0.514646 -0.18367,0.955511 -0.55232,1.322856 -0.36839,0.367342 -0.81004,0.550491 -1.32495,0.550491 -0.51622,0 -0.95761,-0.183149 -1.32626,-0.550491 -0.36734,-0.367083 -0.55154,-0.80821 -0.55154,-1.322856 v -6.898943 c 0,-0.514647 0.1842,-0.955511 0.55154,-1.322593 0.36865,-0.367344 0.8103,-0.551016 1.32626,-0.551016 0.51517,0 0.95682,0.183672 1.32495,0.551016 0.36865,0.36682 0.55232,0.807946 0.55232,1.322593 v 6.898943 z"
             id="path4313"
             inkscape:connector-curvature="0"
             style="fill:#ffffff"
             clip-path="none" />
          <path
             d="m 260.04756,38.429761 c 0,0.475924 -0.17111,0.884607 -0.5136,1.225263 -0.34196,0.339871 -0.75222,0.510199 -1.2305,0.510199 h -2.56434 c -0.47906,0 -0.88591,0.166927 -1.22081,0.501304 -0.33569,0.333592 -0.50261,0.739135 -0.50261,1.216891 v 3.456274 c 0,0.476709 -0.17033,0.886439 -0.51203,1.226833 -0.34171,0.341702 -0.75117,0.511246 -1.22919,0.511246 -0.47776,0 -0.88801,-0.169544 -1.22919,-0.510723 -0.3417,-0.340656 -0.51229,-0.749077 -0.51229,-1.226571 v -3.454443 c 0,-1.430913 0.50889,-2.654083 1.52746,-3.669249 1.01856,-1.014904 2.24566,-1.52301 3.68102,-1.52301 h 2.56251 c 0.47854,0 0.88853,0.170328 1.23023,0.510984 0.34197,0.340394 0.51334,0.748293 0.51334,1.225002 z"
             id="path4315"
             inkscape:connector-curvature="0"
             style="fill:#ffffff"
             clip-path="none" />
          <path
             d="m 243.59324,47.077771 c -1.47775,0 -2.87046,-0.561481 -3.96935,-1.684443 -1.09785,-1.123485 -1.51987,-2.347179 -1.51987,-3.930105 0,0 -0.10701,-5.033967 5.58603,-5.033967 4.45443,0 5.81051,3.128961 5.81051,4.673687 0,1.22788 -0.56174,1.663775 -1.84012,1.663775 h -5.6933 c 0,0 -0.20617,1.302708 2.38747,1.302708 h 3.24906 c 0.83071,0 1.50391,0.673202 1.50391,1.504173 0,0.830708 -0.6732,1.503911 -1.50391,1.503911 h -4.01043 z m -1.58816,-6.708991 h 3.73806 c 0,-1.228141 -1.85922,-1.228141 -1.85922,-1.228141 0,0 -1.87884,-2.55e-4 -1.87884,1.228141 z"
             id="path4317"
             inkscape:connector-curvature="0"
             style="fill:#ffffff"
             clip-path="none" />
        </g>
        <g
           id="g4288"
           style="fill:url(#linearGradient4789);fill-opacity:1"
           transform="matrix(1.3675069,0,0,1.3675069,-67.500458,-29.203287)">
          <path
             clip-path="none"
             style="fill:url(#linearGradient4690);fill-opacity:1"
             inkscape:connector-curvature="0"
             id="path7"
             d="m 246.98515,41.500376 c -0.0149,0.0026 -0.0303,0.0016 -0.0455,0.0042 l 0.0788,-0.01282 c -0.0123,0.0018 -0.0209,0.0068 -0.0332,0.0086 z" />
          <path
             clip-path="none"
             style="fill:url(#linearGradient4692);fill-opacity:1"
             inkscape:connector-curvature="0"
             id="path9"
             d="m 194.2083,45.206516 c 0,0.513863 -0.1842,0.954466 -0.55285,1.321025 -0.36865,0.367081 -0.8103,0.550491 -1.32626,0.550491 h -3.71477 c -1.5476,0 -2.8702,-0.546829 -3.96857,-1.641533 -1.09863,-1.094966 -1.64729,-2.412589 -1.64729,-3.955224 v -7.502546 c 0,-0.528776 0.18289,-0.97278 0.54866,-1.333059 0.36578,-0.359756 0.81266,-0.540026 1.34013,-0.540026 0.51203,0 0.95211,0.183671 1.31736,0.550753 0.3663,0.366559 0.54997,0.806638 0.54997,1.321024 v 2.716615 h 5.2888 c 0.48011,0 0.89141,0.170067 1.23469,0.510723 0.34301,0.340133 0.51386,0.74803 0.51386,1.22474 0,0.475662 -0.17085,0.884607 -0.51256,1.225002 -0.3417,0.339871 -0.75221,0.510199 -1.23023,0.510199 h -5.29456 v 1.314744 c 0,0.515694 0.18001,0.953681 0.54186,1.314746 0.36132,0.360278 0.80009,0.540549 1.31631,0.540549 h 3.71556 c 0.51569,0 0.95839,0.183934 1.32704,0.550754 0.36865,0.367081 0.55285,0.807423 0.55285,1.321023 z" />
          <path
             clip-path="none"
             style="fill:url(#linearGradient4694);fill-opacity:1"
             inkscape:connector-curvature="0"
             id="path11"
             d="m 237.7147,45.206516 c 0,0.513863 -0.1842,0.954466 -0.55259,1.321025 -0.36839,0.367081 -0.8103,0.550491 -1.32599,0.550491 h -1.68733 c -1.5476,0 -2.87019,-0.546829 -3.96856,-1.641533 -1.09837,-1.094705 -1.64703,-2.412589 -1.64703,-3.955224 v -7.502546 c 0,-0.528776 0.18263,-0.97278 0.54866,-1.333059 0.36577,-0.359756 0.81239,-0.540026 1.34012,-0.540026 0.51177,0 0.95212,0.183671 1.3171,0.550753 0.3663,0.366559 0.54997,0.806638 0.54997,1.321024 v 2.716615 h 3.26135 c 0.48011,0 0.89141,0.170328 1.23442,0.510723 0.34328,0.340133 0.51387,0.74803 0.51387,1.22474 0,0.475662 -0.17059,0.884346 -0.5123,1.224739 -0.3417,0.339872 -0.75221,0.5102 -1.22997,0.5102 h -3.26763 v 1.315006 c 0,0.515694 0.18001,0.953681 0.54186,1.314746 0.36132,0.360278 0.8001,0.540549 1.31605,0.540549 h 1.68837 c 0.51543,0 0.95839,0.183934 1.32678,0.550754 0.36865,0.367081 0.55285,0.807423 0.55285,1.321023 z" />
          <path
             clip-path="none"
             style="fill:url(#linearGradient4696);fill-opacity:1"
             inkscape:connector-curvature="0"
             id="path13"
             d="m 227.89375,45.206516 c 0,0.513863 -0.18419,0.954466 -0.55258,1.321025 -0.36839,0.367081 -0.81031,0.550491 -1.326,0.550491 h -1.68732 c -1.5476,0 -2.8702,-0.546829 -3.96831,-1.641533 -1.09836,-1.094966 -1.64702,-2.412589 -1.64702,-3.955224 v -7.502546 c 0,-0.528776 0.18288,-0.97278 0.54866,-1.333059 0.36577,-0.359756 0.81239,-0.540026 1.34012,-0.540026 0.51177,0 0.95211,0.183671 1.3171,0.550753 0.3663,0.366559 0.54997,0.806638 0.54997,1.321024 v 2.716615 h 3.26135 c 0.48011,0 0.89141,0.170328 1.23442,0.510723 0.34327,0.340133 0.51386,0.74803 0.51386,1.22474 0,0.475662 -0.17059,0.884346 -0.51229,1.224739 -0.3417,0.339872 -0.75222,0.5102 -1.22997,0.5102 h -3.26711 v 1.315006 c 0,0.515694 0.18001,0.953681 0.54186,1.314746 0.36132,0.360278 0.8001,0.540549 1.31605,0.540549 h 1.68837 c 0.51543,0 0.95839,0.183934 1.32678,0.550754 0.3676,0.367081 0.55206,0.807423 0.55206,1.321023 z" />
          <path
             clip-path="none"
             style="fill:url(#linearGradient4698);fill-opacity:1"
             inkscape:connector-curvature="0"
             id="path15"
             d="m 212.32116,41.841555 c 0,1.443211 -0.51308,2.676846 -1.54054,3.700908 -1.0272,1.023801 -2.26424,1.535569 -3.71137,1.535569 -1.32391,0 -2.48873,-0.446097 -3.49526,-1.339338 -0.99241,0.893241 -2.15095,1.339338 -3.47433,1.339338 -1.44687,0 -2.68469,-0.511768 -3.71216,-1.535569 -1.02694,-1.023799 -1.54028,-2.257697 -1.54028,-3.700908 V 38.18408 c 0,-0.495024 0.1719,-0.910248 0.51701,-1.24698 0.34353,-0.336993 0.75745,-0.505489 1.23913,-0.505489 0.48272,0 0.89585,0.168496 1.23965,0.505489 0.34432,0.336993 0.51674,0.753002 0.51674,1.248026 v 3.658784 c 0,0.482465 0.16902,0.890888 0.50628,1.228142 0.33803,0.336993 0.74855,0.504705 1.23101,0.504705 0.46886,0 0.87205,-0.167712 1.20983,-0.504705 0.33778,-0.337254 0.50628,-0.745938 0.50628,-1.228142 v -3.638375 c 0,-0.481158 0.1732,-0.896643 0.51778,-1.247765 0.34589,-0.350337 0.7674,-0.526159 1.26425,-0.526159 0.48273,0 0.8969,0.171898 1.24253,0.516217 0.34563,0.343534 0.51805,0.756403 0.51805,1.237298 v 3.658784 c 0,0.482465 0.16902,0.890888 0.5068,1.228142 0.33725,0.336993 0.74123,0.504705 1.20956,0.504705 0.48273,0 0.89324,-0.167712 1.23024,-0.504705 0.33804,-0.337254 0.5068,-0.745938 0.5068,-1.228142 v -3.658784 c 0,-0.480895 0.17242,-0.893764 0.517,-1.237298 0.34406,-0.344058 0.75771,-0.516217 1.23913,-0.516217 0.48246,0 0.89612,0.171898 1.23991,0.515432 0.34432,0.343535 0.51648,0.755879 0.51648,1.237037 v 3.657475 z" />
          <path
             clip-path="none"
             style="fill:url(#linearGradient4700);fill-opacity:1"
             inkscape:connector-curvature="0"
             id="path17"
             d="m 217.39437,33.568477 c 0,0.513339 -0.18367,0.953941 -0.55232,1.320762 -0.36839,0.36682 -0.81004,0.550753 -1.32495,0.550753 -0.51622,0 -0.95761,-0.183933 -1.32626,-0.550753 -0.36734,-0.366559 -0.55154,-0.807423 -0.55154,-1.320762 0,-0.514124 0.1842,-0.954204 0.55154,-1.321024 0.36865,-0.367344 0.8103,-0.550492 1.32626,-0.550492 0.51517,0 0.95682,0.183148 1.32495,0.550492 0.36865,0.36682 0.55232,0.807161 0.55232,1.321024 z" />
          <path
             clip-path="none"
             style="fill:url(#linearGradient4702);fill-opacity:1"
             inkscape:connector-curvature="0"
             id="path19"
             d="m 217.39437,45.204424 c 0,0.514646 -0.18367,0.955511 -0.55232,1.322856 -0.36839,0.367342 -0.81004,0.550491 -1.32495,0.550491 -0.51622,0 -0.95761,-0.183149 -1.32626,-0.550491 -0.36734,-0.367083 -0.55154,-0.80821 -0.55154,-1.322856 v -6.898943 c 0,-0.514647 0.1842,-0.955511 0.55154,-1.322593 0.36865,-0.367344 0.8103,-0.551016 1.32626,-0.551016 0.51517,0 0.95682,0.183672 1.32495,0.551016 0.36865,0.36682 0.55232,0.807946 0.55232,1.322593 v 6.898943 z" />
          <path
             clip-path="none"
             style="fill:url(#linearGradient4704);fill-opacity:1"
             inkscape:connector-curvature="0"
             id="path21"
             d="m 260.04756,38.429761 c 0,0.475924 -0.17111,0.884607 -0.5136,1.225263 -0.34196,0.339871 -0.75222,0.510199 -1.2305,0.510199 h -2.56434 c -0.47906,0 -0.88591,0.166927 -1.22081,0.501304 -0.33569,0.333592 -0.50261,0.739135 -0.50261,1.216891 v 3.456274 c 0,0.476709 -0.17033,0.886439 -0.51203,1.226833 -0.34171,0.341702 -0.75117,0.511246 -1.22919,0.511246 -0.47776,0 -0.88801,-0.169544 -1.22919,-0.510723 -0.3417,-0.340656 -0.51229,-0.749077 -0.51229,-1.226571 v -3.454443 c 0,-1.430913 0.50889,-2.654083 1.52746,-3.669249 1.01856,-1.014904 2.24566,-1.52301 3.68102,-1.52301 h 2.56251 c 0.47854,0 0.88853,0.170328 1.23023,0.510984 0.34197,0.340394 0.51334,0.748293 0.51334,1.225002 z" />
          <path
             clip-path="none"
             style="fill:url(#linearGradient4706);fill-opacity:1"
             inkscape:connector-curvature="0"
             id="path23"
             d="m 243.59324,47.077771 c -1.47775,0 -2.87046,-0.561481 -3.96935,-1.684443 -1.09785,-1.123485 -1.51987,-2.347179 -1.51987,-3.930105 0,0 -0.10701,-5.033967 5.58603,-5.033967 4.45443,0 5.81051,3.128961 5.81051,4.673687 0,1.22788 -0.56174,1.663775 -1.84012,1.663775 h -5.6933 c 0,0 -0.20617,1.302708 2.38747,1.302708 h 3.24906 c 0.83071,0 1.50391,0.673202 1.50391,1.504173 0,0.830708 -0.6732,1.503911 -1.50391,1.503911 h -4.01043 z m -1.58816,-6.708991 h 3.73806 c 0,-1.228141 -1.85922,-1.228141 -1.85922,-1.228141 0,0 -1.87884,-2.55e-4 -1.87884,1.228141 z" />
        </g>
        <path
           style="fill:url(#linearGradient4710);fill-opacity:1;stroke:#3dc7f5;stroke-width:0.2;stroke-miterlimit:4;stroke-opacity:1;stroke-dasharray:none"
           inkscape:connector-curvature="0"
           id="path25"
           d="m 322.7746,23.569721 c -1.32599,0.226485 -3.24913,-0.0089 -4.26813,-0.432933 2.11742,-0.175319 3.55112,-1.137786 4.10355,-2.444457 -0.76318,0.469784 -3.13358,0.981434 -4.44095,0.493756 -0.065,-0.307345 -0.13593,-0.600022 -0.2079,-0.86479 -0.99538,-3.664184 -4.41018,-6.617069 -7.98561,-6.25999 0.28837,-0.117004 0.58069,-0.225769 0.87622,-0.324877 0.39143,-0.140973 2.70244,-0.518089 2.33891,-1.332789 -0.3077,-0.718454 -3.13071,0.54027 -3.66167,0.705931 0.70164,-0.262981 1.86233,-0.716665 1.98576,-1.524209 -1.07446,0.147412 -2.1296,0.656197 -2.94431,1.395759 0.29484,-0.316649 0.51775,-0.702709 0.56496,-1.119184 -2.86735,1.83406 -4.5422,5.528656 -5.89681,9.115197 -1.06373,-1.032955 -2.00904,-1.846225 -2.85449,-2.298834 -2.37328,-1.272322 -5.21201,-2.601889 -9.66657,-4.257768 -0.13702,1.475191 0.72848,3.438417 3.22088,4.741865 -0.53957,-0.07299 -1.52707,0.09051 -2.31565,0.278005 0.32093,1.692015 1.37178,3.084198 4.21839,3.756855 -1.30058,0.08551 -1.97395,0.383554 -2.58256,1.020432 0.59216,1.176431 2.03944,2.559311 4.63846,2.274862 -2.89241,1.248349 -1.17965,3.558991 1.17392,3.214079 -4.01267,4.151143 -10.341,3.84308 -13.97512,0.374253 9.48659,12.940748 30.11063,7.652172 33.18266,-4.811991 2.30492,0.01862 3.65668,-0.797886 4.49606,-1.699172 z"
           clip-path="none" />
      </g>
    </g>
  </g>
</svg>
